<svg height="78" width="158" xmlns="http://www.w3.org/2000/svg"><g fill="none" fill-rule="evenodd"><path d="m157.673 4.882c.134 4.438-12.584 65.246-16.714 71.583-2.983 4.576-36.693-6.477-37.66-8.516-.966-2.04 6.855-67.071 11.618-67.619 4.763-.55 42.623.115 42.756 4.552zm-3.722 2.313c.627-3.039-35.492-3.597-37.742-3.052-2.249.546-10.022 54.115-8.925 56.319 1.096 2.204 31.522 6.802 32.833 7.07 1.31.268 12.886-55.752 13.834-60.337z" fill="#fab4b4"/><path d="m115.527 65.408c5.189.823 19.492 3.08 19.862 3.926.37.849.357 3.101-.506 3.19-.862.09-22.567-3.803-22.868-4.753-.299-.95-.357-2.977 3.512-2.363m9.853-27.801s-1.455-1.782-4.964-2.13c-3.507-.348-6.022 2.658-6.022 2.658l.379 1.219s1.715-1.16 4.168-1.758c2.453-.597 3.577 2.235 3.577 2.235l4.113-1.866-.186-.772z" fill="#fc6c6c"/><path d="m140.795 39.91-.967-.955s.956-5.482 1.645-10.5c.69-5.017 3.57-5.148 3.57-5.148s-.038-1.425-.37-1.03c-.331.394-2.328.463-2.328.463l-3.15-2.36-4.13 1.833-2.338-2.754-4.515 1.938c.057-.646.073-1.116.03-1.32-.274-1.321-1.41-2.191-4.996-1.024-3.584 1.166-2.083.05-2.083.05l1.101-2.098-.744-.904-2.487 3.14s.25 2.196 2.624 2.195c2.372-.003 2.71.33 2.375 4.902-.336 4.57-1.462 7.696-2.335 8.485l4.673-1.107s1.164-6.684 1.667-10.733l1.84-.989 1.626 1.468-3.154 18.084 4.55-1.49 2.382-16.95 1.734-.747 3.025 2.91s-1.761.69-1.772 1.578c-.01.888-1.916 9.908-2.32 12.843-.403 2.936 1.728 2.81 1.728 2.81l4.447-2.055s-.153-1.022-.187-1.458c-.036-.433-1.14.923-1.14.923" fill="#fc6c6c"/><path d="m102.391 34.629c-.376 1.393-17.59-3.377-18.974-3.256-1.385.12-7.444 5.276-9.3 5.83-1.857.553-20.564-3.46-19.59-4.832.975-1.373 16.01 1.616 17.877.65 1.869-.966 8.766-6.036 10.078-6.15 1.628-.143 20.286 6.364 19.91 7.758z" fill="#fab4b4"/><path d="m.06 5.448c-.133 4.424 12.667 65.052 16.824 71.37 3.002 4.561 37.225-7.533 37.9-8.492.676-.958-6.898-66.871-11.691-67.417-4.795-.549-42.898.114-43.033 4.539zm3.747 2.305c-.63-3.03 35.72-3.586 37.984-3.043 2.264.545 10.086 53.954 8.983 56.152-1.104 2.197-31.725 6.782-33.044 7.048-1.32.268-12.969-55.586-13.923-60.157z" fill="#92c6c9"/><path d="m42.478 65.793c-5.223.82-19.618 3.07-19.99 3.915-.373.846-.36 3.092.51 3.18.866.09 22.711-3.792 23.014-4.739.301-.947.36-2.968-3.534-2.356" fill="#cee7e4"/><g fill="#92c6c9"><path d="m21.878 39.947c-5.202-3.643-6.467-10.814-2.824-16.016 3.643-5.203 10.814-6.467 16.017-2.824 5.202 3.643 6.467 10.813 2.824 16.016s-10.814 6.467-16.017 2.824zm18.59-.917c4.435-6.334 2.896-15.063-3.438-19.498s-15.063-2.896-19.498 3.438-2.896 15.063 3.438 19.498 15.063 2.896 19.498-3.438zm-10.675-5.188-.483.13a1 1 0 0 1 -1.224-.708l-2.2-8.21a1.5 1.5 0 0 1 1.06-1.837l.483-.13a1 1 0 0 1 1.225.708l2.2 8.21a1.5 1.5 0 0 1 -1.06 1.837zm1.916 4.89-.966.259a1 1 0 0 1 -1.188-.596l-.036-.111-.26-.966a1 1 0 0 1 .597-1.188l.11-.037.967-.259a1 1 0 0 1 1.188.596l.037.111.258.966a1 1 0 0 1 -.707 1.225z" fill-rule="nonzero"/><path d="m27.64 54.011c-.22.12-1.235-.104-1.222-.317.012-.213.48-3.104.63-3.34.15-.235.651-.792 1.007-.595s-.194 4.133-.415 4.252zm12.48-3.2c-.082.312-1.089 1.147-1.253.97s-2.149-2.873-2.22-3.205c-.07-.33-.027-1.637.332-1.46.36.176 3.223 3.384 3.14 3.695zm-22.286.804c-.298.097-1.347-.27-1.244-.493.102-.222 1.822-3.2 2.088-3.428.267-.228 1.264-.747 1.38-.495.116.253-1.926 4.32-2.224 4.416zm28.143-10.283c.099.338-.156 1.752-.352 1.695-.195-.057-2.838-1.248-3.048-1.506s-.715-1.485-.5-1.551c.214-.067 3.8 1.024 3.9 1.362zm-6.52-28.6c.25-.01 1.065.636.96.822s-1.792 2.579-2.03 2.725-.933.426-1.167.093 1.986-3.63 2.237-3.64zm-10.029-3.658c.279-.162 1.581-.041 1.572.2-.01.241-.513 3.551-.697 3.835s-1.139 1.178-1.268.799c-.128-.379.115-4.672.393-4.834zm-12.427 1.792c.066-.306.908-1.032 1.05-.832.14.2 1.86 3.178 1.924 3.523s.015 1.469-.262 1.443c-.276-.026-2.777-3.828-2.712-4.134zm-7.977 7.448c-.014-.352.575-1.662.751-1.56.177.103 2.453 1.898 2.594 2.2.141.3.335 1.613.11 1.626-.224.012-3.44-1.914-3.455-2.266z"/></g></g></svg>